<svg width="56" height="48" viewBox="0 0 56 48" fill="none" xmlns="http://www.w3.org/2000/svg">
<path d="M35.5803 18.5719C36.8678 18.5122 38.0331 16.3823 38.0331 16.3823C35.9453 15.2875 33.4943 15.7972 32.2895 19.7354C26.8493 17.4552 34.0017 3.27593 42.9579 7.20203C37.5529 1.26531 27.997 2.01429 27.997 2.01429C27.997 2.01429 18.441 1.26531 13.0334 7.20279C21.9887 3.27669 29.1411 17.4575 23.7018 19.7361C22.4987 15.7994 20.0486 15.2898 17.9582 16.3869C17.9582 16.3869 19.324 18.4798 20.6106 18.5394C20.3511 19.0679 15.5318 20.7841 11.9473 17.4597C12.1293 20.5953 18.3671 22.7373 19.5904 22.0691C21.8242 20.849 23.2032 20.5161 23.2032 20.5161C20.6528 23.9408 19.2246 29.1142 19.5904 30.2158C21.5208 32.5526 27.9952 35.5394 27.9952 35.5394C27.9952 35.5394 33.5717 33.0705 36.3991 30.2158C36.7658 29.1142 35.3367 23.9408 32.7872 20.5161C32.7872 20.5161 34.1653 20.849 36.3991 22.0691C37.6232 22.7373 43.8602 20.5953 44.0431 17.4597C40.4594 20.7818 35.8398 19.0974 35.5803 18.5719Z" fill="#100F12"/>
<path d="M20.6356 5.80262C20.6874 5.81319 20.7384 5.82149 20.7903 5.83055L20.9433 5.86453C21.0445 5.88492 21.1438 5.91436 21.2414 5.94003C21.339 5.9657 21.4349 6.00119 21.5307 6.02988C21.6266 6.05857 21.7171 6.09934 21.8077 6.13558C21.8983 6.17182 21.9836 6.21108 22.0715 6.25639C22.1594 6.30169 22.2474 6.34019 22.3186 6.38549C22.4762 6.47928 22.6266 6.58167 22.7688 6.69203C23.0651 6.91854 23.358 7.18959 23.6798 7.48178C24.0207 7.80047 24.3865 8.09889 24.7746 8.37497C25.2196 8.68792 25.7201 8.93771 26.2571 9.11489C26.5381 9.20275 26.8273 9.26994 27.1215 9.31573C27.701 9.39979 28.2928 9.39979 28.8722 9.31573C29.1664 9.27048 29.4554 9.20302 29.7357 9.11414C30.2729 8.93736 30.7735 8.68753 31.2183 8.37422C32.0598 7.78606 32.6252 7.14127 33.2232 6.69052C33.3658 6.58032 33.5162 6.4777 33.6734 6.38323C33.7481 6.33793 33.8361 6.29716 33.9214 6.25488C34.0067 6.21259 34.0972 6.17937 34.1852 6.13407C34.2731 6.08877 34.3689 6.05857 34.463 6.02837L34.6064 5.98231C34.6547 5.96721 34.7022 5.9506 34.7523 5.93777C34.8499 5.91059 34.9493 5.88114 35.0513 5.86226L35.2034 5.82829L35.3591 5.80035C36.2452 5.64906 37.1603 5.6775 38.0313 5.88341C37.6723 5.59301 37.2553 5.36053 36.8003 5.19709C36.6851 5.15104 36.5664 5.11781 36.4485 5.08082C36.3307 5.04382 36.2059 5.01815 36.0819 4.98795C35.8314 4.93608 35.5769 4.89949 35.3204 4.87847C34.7927 4.83664 34.2606 4.86465 33.7428 4.96153L33.5468 5.0023C33.4804 5.01454 33.4149 5.03017 33.3507 5.04911C33.2214 5.08535 33.093 5.11933 32.9594 5.16765C32.7023 5.25753 32.4543 5.36562 32.2181 5.49079C31.7915 5.72405 31.384 5.98212 30.9985 6.26318C30.6362 6.51838 30.3003 6.7547 29.9749 6.9427C29.3198 7.32021 28.721 7.49311 28.0008 7.49235C27.2807 7.4916 26.6818 7.32172 26.0276 6.94119C25.7023 6.75243 25.3672 6.51536 25.0041 6.26167C24.6188 5.98061 24.2116 5.72255 23.7853 5.48929C23.3154 5.23942 22.7991 5.06066 22.2588 4.96077C21.7409 4.86465 21.209 4.83664 20.6813 4.87772C20.4236 4.89839 20.168 4.93472 19.9163 4.98644C19.7932 5.01589 19.6701 5.04458 19.5496 5.07931C19.4291 5.11404 19.3113 5.14953 19.1979 5.19558C18.7428 5.35956 18.3257 5.59255 17.9668 5.88341C18.8371 5.67927 19.7507 5.65162 20.6356 5.80262Z" fill="white"/>
<path d="M32.1908 11.8715C32.4775 11.6979 32.7536 11.5174 33.0175 11.3324C33.2813 11.1475 33.5275 10.9632 33.7738 10.7805L34.4984 10.2407C34.7359 10.061 34.9724 9.89112 35.2116 9.72577C35.4508 9.56042 35.6883 9.40413 35.9319 9.25841C36.1713 9.11718 36.4191 8.98664 36.6741 8.86731L36.8641 8.78426L37.0567 8.70876C37.1227 8.68157 37.1842 8.66647 37.2475 8.64609L37.3434 8.61513C37.375 8.60532 37.4076 8.59852 37.4401 8.59022C37.5052 8.57512 37.5703 8.55398 37.6362 8.54341L37.8368 8.50792C37.9723 8.49064 38.1088 8.4798 38.2457 8.47545C38.5262 8.46448 38.807 8.48864 39.0794 8.54718C39.2194 8.57658 39.3569 8.61416 39.491 8.65968L39.6941 8.73518L39.892 8.82427C40.1603 8.95307 40.4092 9.10951 40.6334 9.29012C40.8696 9.47877 41.087 9.6841 41.2833 9.90395C41.1898 9.62842 41.0587 9.36334 40.8928 9.1142C40.7222 8.85491 40.5099 8.61752 40.2622 8.40901C39.7368 7.96548 39.0672 7.66907 38.3416 7.55886C38.1566 7.52933 37.9694 7.51116 37.7814 7.5045H37.4982C37.4032 7.5045 37.31 7.51507 37.215 7.52111C37.1684 7.52111 37.12 7.52715 37.0734 7.53243L36.9336 7.55206C36.8456 7.56717 36.7436 7.57849 36.6566 7.59888L36.3883 7.65626L36.1245 7.72572C35.7845 7.82325 35.4533 7.94184 35.1334 8.08058C34.8194 8.21724 34.5116 8.35994 34.2232 8.51698C33.9347 8.67402 33.6489 8.83107 33.3754 8.99264C33.1019 9.15422 32.8363 9.32108 32.5733 9.4819L31.7994 9.95605C31.5497 10.1071 31.2973 10.2505 31.0449 10.3834C30.7925 10.5163 30.5401 10.6371 30.2877 10.7443C30.161 10.7994 30.0344 10.8462 29.9078 10.8953C29.7811 10.9444 29.6554 10.9836 29.5279 11.0191C29.2807 11.0933 29.0268 11.1501 28.7689 11.189C28.6423 11.2041 28.5156 11.223 28.389 11.229C28.3256 11.2353 28.2619 11.2386 28.1981 11.2388H28.1023C28.0697 11.2388 28.0425 11.2388 27.9985 11.2388H27.7989C27.7347 11.2388 27.6714 11.2343 27.608 11.229C27.4805 11.223 27.3539 11.2041 27.2273 11.1882C26.9696 11.1495 26.716 11.0927 26.4692 11.0184C26.3417 10.9829 26.2159 10.9376 26.0893 10.8945C25.9626 10.8515 25.8369 10.7979 25.7102 10.7435C25.457 10.6371 25.2054 10.517 24.9522 10.3819C24.6989 10.2467 24.4482 10.1078 24.1985 9.95529L23.4246 9.48114C23.1607 9.31957 22.8969 9.15346 22.6225 8.99113C22.3481 8.8288 22.065 8.67025 21.7756 8.51547C21.4863 8.36069 21.1794 8.21346 20.8645 8.07907C20.5438 7.94111 20.212 7.82303 19.8717 7.72572L19.6078 7.65701L19.3396 7.59963C19.2517 7.57925 19.1549 7.56792 19.0617 7.55282L18.9271 7.52941C18.8805 7.52413 18.8322 7.52186 18.7856 7.51809C18.6906 7.5128 18.5974 7.50148 18.5024 7.50223H18.2148C18.0268 7.50935 17.8397 7.52752 17.6546 7.55659C16.9287 7.66705 16.2587 7.96371 15.733 8.4075C15.4858 8.61645 15.2739 8.85407 15.1034 9.11345C14.9376 9.36291 14.8065 9.62823 14.7129 9.90395C14.9097 9.68449 15.1274 9.47943 15.3637 9.29088C15.5881 9.11025 15.8374 8.95381 16.1059 8.82503L16.3029 8.73669L16.5061 8.66119C16.573 8.63731 16.6414 8.61664 16.711 8.59928C16.7788 8.57889 16.8481 8.5625 16.9185 8.5502C17.1903 8.49166 17.4706 8.46749 17.7505 8.47847C17.8874 8.48307 18.0239 8.49416 18.1594 8.51169L18.3599 8.54718C18.4259 8.55775 18.4909 8.57889 18.556 8.59324C18.5886 8.6023 18.6211 8.60834 18.6528 8.61815L18.7477 8.64911C18.8119 8.66949 18.8735 8.68535 18.9386 8.71178L19.1312 8.78728L19.3211 8.87108C19.5767 8.98943 19.8245 9.11974 20.0634 9.26143C20.3061 9.4079 20.5435 9.56344 20.7836 9.72879C21.0237 9.89414 21.2585 10.064 21.496 10.2437L22.2215 10.7835C22.4669 10.967 22.7114 11.152 22.9769 11.3347C23.2425 11.5174 23.5169 11.7001 23.8045 11.8746C24.0967 12.0528 24.4006 12.2164 24.7147 12.3646C25.0398 12.5205 25.3778 12.6558 25.7261 12.7693C26.0885 12.8858 26.4619 12.9757 26.8421 13.038C27.0347 13.0652 27.2281 13.0924 27.4242 13.1045C27.5219 13.1128 27.6195 13.1203 27.7171 13.1211L27.864 13.1256H28.0029C28.039 13.1256 28.0909 13.1256 28.141 13.1256L28.2879 13.1218C28.3863 13.1218 28.484 13.1135 28.5816 13.1052C28.7768 13.0932 28.9712 13.066 29.1629 13.038C29.541 12.9756 29.9121 12.8849 30.2719 12.767C30.6206 12.654 30.9589 12.5187 31.2841 12.3623C31.5971 12.2139 31.8999 12.05 32.1908 11.8715Z" fill="white"/>
<path d="M13.3457 27.3244C13.2498 27.2285 13.1478 27.1379 13.0501 27.0466C12.9525 26.9552 12.861 26.8616 12.7677 26.7702C12.4115 26.4148 12.0773 26.0436 11.7666 25.6581C11.185 24.9411 10.7093 24.1651 10.3501 23.3477C10.0065 22.5532 9.78759 21.7229 9.69912 20.8788C9.65335 20.4428 9.63866 20.0049 9.65513 19.5674C9.66041 19.4556 9.67009 19.3408 9.67273 19.2283C9.67537 19.1158 9.6956 19.0018 9.7 18.8841C9.7044 18.7663 9.72727 18.6515 9.73783 18.533C9.74839 18.4144 9.7695 18.2959 9.77478 18.1736C9.6305 18.2763 9.49853 18.382 9.36481 18.4899C9.23109 18.5979 9.12024 18.7089 9.00411 18.8206C8.88798 18.9324 8.78945 19.0471 8.68212 19.1627C8.57479 19.2782 8.49473 19.3952 8.39972 19.513C8.062 19.9632 7.80517 20.4544 7.63785 20.9702C7.32761 21.9293 7.37872 22.9481 7.78389 23.8808C8.18154 24.8064 8.91877 25.6641 9.96481 26.3723C10.517 26.7411 11.1183 27.0523 11.756 27.2995C11.9319 27.3614 12.0982 27.4248 12.2707 27.4845C12.4431 27.5441 12.6278 27.5962 12.8108 27.6468C12.9938 27.6974 13.1865 27.7412 13.3756 27.7857C13.5648 27.8303 13.7671 27.8612 13.9695 27.893C13.8683 27.7918 13.7601 27.6989 13.6536 27.6061C13.5472 27.5132 13.4504 27.4143 13.3457 27.3244Z" fill="white"/>
<path d="M15.1299 20.5491C14.4906 20.1605 13.908 19.7073 13.3949 19.1991C12.8545 18.6566 12.3722 18.0734 11.9536 17.4565C11.1437 19.5887 12.1295 22.0395 12.8875 22.4933C13.8873 23.1177 17.9878 22.972 19.5962 22.0659C18.7789 21.9359 17.9767 21.7436 17.199 21.4914C16.4681 21.2491 15.7735 20.9327 15.1299 20.5491Z" fill="white"/>
<path d="M11.5935 8.76799C11.0763 8.60705 10.5808 8.39872 10.1156 8.14661C9.64028 7.88301 9.20345 7.57149 8.81441 7.21869C8.38787 6.82928 8.00792 6.40408 7.68028 5.9495C7.31243 5.43541 6.98466 4.90094 6.69913 4.34961C6.35274 6.18129 7.11058 8.38217 7.59325 8.81555C8.23504 9.41202 10.6862 9.4845 11.5935 8.76799Z" fill="white"/>
<path d="M23.6085 14.2322C22.9713 13.7655 22.2344 13.4098 21.4389 13.185C20.6632 12.9638 19.9104 12.8664 19.2166 12.7826C18.5227 12.6988 17.8789 12.6316 17.2739 12.5055C16.9783 12.4441 16.6886 12.363 16.4076 12.2631C16.2704 12.2125 16.135 12.1544 16.0066 12.0947C15.8759 12.0306 15.7502 11.9592 15.6302 11.8811C15.1465 11.5594 14.7209 11.1162 14.5538 10.4873C14.4746 10.6379 14.4216 10.7977 14.3964 10.9615C14.3731 11.132 14.3731 11.3043 14.3964 11.4749C14.424 11.6489 14.4717 11.8201 14.5388 11.986C14.6107 12.1535 14.6989 12.3154 14.8027 12.47C14.9109 12.6255 15.0329 12.7737 15.1676 12.9132C15.3054 13.0507 15.4551 13.1792 15.6153 13.2975C15.7736 13.4136 15.9398 13.5215 16.113 13.6206C16.2889 13.7158 16.4648 13.8064 16.6407 13.8849C17.3618 14.2043 18.1181 14.3892 18.8147 14.5395C19.5112 14.6897 20.1646 14.8098 20.738 14.9759C21.8637 15.3036 22.8856 15.8585 23.5135 16.6611C23.8363 17.0821 24.0329 17.565 24.086 18.067C24.1564 18.6441 24.0244 19.2262 23.7069 19.7386C24.0604 19.5959 24.3683 19.3816 24.604 19.1142C24.8533 18.8361 25.0411 18.521 25.158 18.1847C25.4026 17.4755 25.3743 16.7174 25.0771 16.0231C24.7732 15.3285 24.2677 14.712 23.6085 14.2322Z" fill="white"/>
<path d="M39.4367 13.8833C39.6125 13.8078 39.7945 13.7142 39.9642 13.6191C40.1373 13.52 40.3035 13.412 40.4618 13.2959C40.6224 13.1782 40.7726 13.0502 40.911 12.9131C41.0456 12.7742 41.1676 12.6265 41.2758 12.4715C41.3796 12.3168 41.4678 12.1549 41.5396 11.9875C41.6071 11.8217 41.6548 11.6504 41.682 11.4763C41.7053 11.3058 41.7053 11.1335 41.682 10.9629C41.6568 10.7991 41.6038 10.6394 41.5246 10.4888C41.3576 11.1177 40.9321 11.5609 40.4486 11.8825C40.3287 11.9607 40.203 12.0321 40.0723 12.0962C39.9439 12.1559 39.8086 12.214 39.6714 12.2646C39.3905 12.3646 39.101 12.4457 38.8054 12.5069C38.2015 12.6345 37.5597 12.7025 36.8634 12.784C36.1671 12.8656 35.4172 12.9652 34.6418 13.1865C33.8461 13.4107 33.1088 13.7658 32.4712 14.2322C31.8111 14.7112 31.3046 15.3272 30.9995 16.0216C30.7025 16.7159 30.6741 17.4739 30.9186 18.1832C31.0355 18.5195 31.2232 18.8345 31.4725 19.1126C31.7081 19.38 32.0158 19.5943 32.3692 19.737C32.0522 19.2245 31.9203 18.6426 31.9903 18.0654C32.0434 17.5635 32.24 17.0805 32.5626 16.6595C33.1903 15.857 34.2119 15.3005 35.3372 14.9743C35.9104 14.8082 36.561 14.6874 37.2599 14.5379C37.9588 14.3884 38.7131 14.2027 39.4367 13.8833Z" fill="white"/>
<path d="M46.9964 18.8206C46.8804 18.7089 46.7582 18.5987 46.636 18.4899C46.5138 18.3812 46.3723 18.2763 46.2264 18.1736C46.2264 18.2959 46.2475 18.4152 46.2633 18.533C46.2791 18.6508 46.2835 18.7685 46.3002 18.8841C46.3169 18.9996 46.3178 19.1151 46.3275 19.2283C46.3371 19.3416 46.3398 19.4549 46.345 19.5674C46.3615 20.0049 46.3468 20.4428 46.3011 20.8788C46.2127 21.7229 45.9939 22.5532 45.6506 23.3477C45.2921 24.1651 44.817 24.9411 44.2362 25.6581C43.9257 26.0438 43.5915 26.415 43.235 26.7702C43.1427 26.8616 43.046 26.9522 42.9529 27.0466C42.8597 27.141 42.7542 27.2285 42.6584 27.3244C42.5626 27.4203 42.4527 27.5087 42.3499 27.6038C42.247 27.6989 42.1354 27.7895 42.0352 27.8907C42.2373 27.8597 42.4316 27.822 42.6285 27.7835C42.8254 27.745 43.0065 27.6936 43.192 27.6446C43.3774 27.5955 43.5559 27.5373 43.7317 27.4852C43.9075 27.4332 44.0736 27.3622 44.2459 27.3003C44.8832 27.0533 45.484 26.742 46.0356 26.3731C47.0817 25.6672 47.8174 24.8095 48.2156 23.8815C48.6202 22.9488 48.6709 21.93 48.3607 20.9709C48.1938 20.4552 47.9375 19.9639 47.6003 19.5137C47.5054 19.396 47.4148 19.2789 47.3172 19.1634C47.2197 19.0479 47.108 18.9331 46.9964 18.8206Z" fill="white"/>
<path d="M44.0461 17.4565C43.6276 18.0734 43.1453 18.6566 42.605 19.1991C42.0925 19.7075 41.5104 20.1607 40.8713 20.5491C40.229 20.9326 39.5358 21.2489 38.8064 21.4914C38.0291 21.7436 37.2271 21.9359 36.4102 22.0659C38.0208 22.972 42.1147 23.1177 43.1147 22.4933C43.8668 22.0395 44.8554 19.5887 44.0461 17.4565Z" fill="white"/>
<path d="M55.9587 27.4395C55.631 21.9037 53.4772 16.562 49.7484 12.0371C51.1506 10.8476 52.131 9.34083 52.5756 7.69196C53.0542 5.8474 52.8428 3.92024 51.9715 2.18484C51.763 1.75836 51.5142 1.34726 51.2275 0.955667C51.078 0.754076 50.9206 0.517755 50.7236 0.351651C50.4651 0.12741 50.1467 0.0919235 49.795 0.0564376C49.05 -0.0137791 48.2984 -0.0137791 47.5534 0.0564376C45.723 0.217745 43.9349 0.632059 42.2585 1.28335C40.9148 1.79902 39.5737 2.50497 38.5844 3.46158L38.4147 3.36343C38.1166 3.1943 37.8141 3.03273 37.508 2.87568C37.3585 2.79565 37.1923 2.71864 37.0332 2.64087L36.7905 2.5246C36.7095 2.48685 36.6251 2.45363 36.5425 2.41814C36.3754 2.35019 36.2118 2.27393 36.0412 2.21202L35.5294 2.021C35.3535 1.96286 35.182 1.9085 35.007 1.85263C34.832 1.79676 34.6553 1.75221 34.4794 1.70163C33.7694 1.5126 33.0439 1.36925 32.309 1.27278C31.5852 1.17705 30.8556 1.1168 30.1237 1.09233L29.5829 1.07722L29.0456 1.06967H28.5136L28 1.0742L27.4856 1.06967H26.9526L26.4153 1.07722L25.8745 1.09233C25.1427 1.11629 24.4131 1.17604 23.6892 1.27127C22.9544 1.36802 22.229 1.51137 21.5188 1.70012C21.343 1.7507 21.1627 1.796 20.9912 1.85112L20.4688 2.01874L19.957 2.21051C19.7864 2.27242 19.6229 2.34792 19.4558 2.41663C19.3731 2.45212 19.2887 2.48534 19.2078 2.52309L18.9651 2.63861C18.8059 2.71411 18.6397 2.79414 18.4902 2.87342C18.1851 3.03122 17.8808 3.19279 17.5835 3.36192L17.4129 3.46007C16.4236 2.50497 15.0834 1.79902 13.7406 1.2841C12.0634 0.630965 10.2741 0.215112 8.44221 0.0526625C7.69726 -0.0175542 6.94559 -0.0175542 6.20063 0.0526625C5.85415 0.0881484 5.53317 0.123634 5.27374 0.346365C5.07676 0.51549 4.92199 0.751811 4.76985 0.950382C4.48319 1.34198 4.23436 1.75308 4.02588 2.17955C3.15549 3.91515 2.9441 5.84207 3.42173 7.68667C3.86633 9.33555 4.84671 10.8423 6.249 12.0318C2.52005 16.5566 0.366507 21.8985 0.0395739 27.4342L0 28.0911L0.703518 28.3508C1.0201 28.4671 1.3191 28.6098 1.64359 28.7616C2.01078 28.9413 2.38822 29.105 2.7745 29.2523L3.274 29.4365C3.36031 30.2662 3.50302 31.0908 3.70138 31.9062L3.78932 32.2588L4.12613 32.4725C6.54535 34.0067 9.46319 34.9097 12.7961 35.1573L13.278 35.1936C13.2886 35.3619 13.3035 35.5311 13.3264 35.7002C13.3883 36.11 13.4868 36.5151 13.621 36.912C13.7621 37.3129 13.9409 37.7032 14.1557 38.0793C14.2119 38.1729 14.2647 38.268 14.3245 38.3601L14.5074 38.635C14.5373 38.6795 14.5734 38.7248 14.6103 38.7716L14.7211 38.9105C14.7967 39.0011 14.8671 39.097 14.9506 39.1831C15.0342 39.2692 15.1186 39.356 15.2048 39.4406C15.2487 39.4828 15.2927 39.5274 15.3358 39.5667L15.4774 39.6852C15.5724 39.7607 15.6673 39.8422 15.7641 39.9185L16.0745 40.1291L16.231 40.2326C16.2847 40.265 16.341 40.2945 16.3964 40.3254L16.7305 40.5082C16.8449 40.564 16.9644 40.6124 17.0823 40.6644C17.1986 40.718 17.3184 40.7656 17.4411 40.8071L17.8095 40.9302C17.9335 40.9687 18.0611 40.9967 18.1868 41.0291C18.4396 41.0907 18.6966 41.1388 18.9563 41.1733C19.0179 41.1835 19.0801 41.1903 19.1427 41.1937L20.6869 43.5841C21.7607 45.2384 23.6487 46.4773 25.8666 46.9817C26.5586 47.1395 27.2701 47.2254 27.9859 47.2377L27.9974 46.7091L28.0044 47.2377L28.0088 46.8111L28.0185 47.2377C28.7334 47.2258 29.444 47.1404 30.1352 46.9832C32.3539 46.4773 34.242 45.2384 35.3157 43.5856L36.8678 41.1975C36.9269 41.1938 36.9856 41.1873 37.0437 41.1779C37.3033 41.143 37.5603 41.0948 37.8132 41.0337C37.9389 41.0019 38.0673 40.974 38.1905 40.9355L38.5589 40.8124C38.6818 40.7712 38.8016 40.7235 38.9177 40.6697C39.0356 40.6184 39.1543 40.5693 39.2695 40.5134L39.6036 40.3315C39.659 40.3005 39.7153 40.2711 39.769 40.2386L39.9255 40.1352L40.2359 39.9245C40.3327 39.849 40.4285 39.7735 40.5235 39.6912L40.6642 39.5734C40.7117 39.5334 40.7521 39.4889 40.7961 39.4474C40.884 39.362 40.9667 39.276 41.0511 39.1899C41.1356 39.1038 41.2041 39.0079 41.2807 38.9166L41.3906 38.7784C41.4284 38.7316 41.4644 38.6855 41.4935 38.641L41.6773 38.3669C41.7371 38.2748 41.7898 38.1789 41.8461 38.0861C42.0617 37.7101 42.2406 37.3194 42.3808 36.918C42.5161 36.5214 42.6149 36.1162 42.6763 35.7062C42.6991 35.5371 42.7141 35.3672 42.7246 35.1981L43.203 35.1626C46.5368 34.915 49.4538 34.012 51.873 32.4778L52.2107 32.2641L52.2986 31.9115C52.497 31.0961 52.6397 30.2715 52.726 29.4418L53.2264 29.2576C53.6406 29.1066 54.0047 28.9329 54.3573 28.7668C54.6774 28.6158 54.9808 28.4724 55.2965 28.3561L56 28.0964L55.9587 27.4395ZM33.593 42.1458C32.7954 43.1621 31.3611 43.9284 29.6577 44.25C28.5685 44.4715 27.4341 44.4715 26.345 44.25C24.6416 43.9284 23.2073 43.1621 22.4097 42.1458L21.5487 41.0488C21.7132 41.0103 21.875 40.968 22.0359 40.9219C22.1555 40.8811 22.2751 40.8389 22.3938 40.7958L22.5697 40.7324C22.6278 40.7075 22.684 40.6818 22.7412 40.6569L23.0789 40.5014L23.1202 40.4817L23.1378 40.4727C24.3373 41.4089 26.0574 41.9374 27.9587 41.9374C29.8775 41.9374 31.6117 41.3983 32.8129 40.4455L32.8428 40.4613L32.8771 40.4795L32.9185 40.4991L33.2562 40.6546C33.3124 40.6803 33.3696 40.7067 33.4268 40.7301L33.6026 40.7936L33.9606 40.9196C34.1224 40.9655 34.2862 41.0082 34.4521 41.048L33.593 42.1458ZM30.691 39.4338L30.7156 39.4436C29.9637 39.8309 28.9946 40.0476 27.956 40.0476C26.9351 40.0476 25.9818 39.8369 25.2352 39.4617L25.3231 39.4262C26.1638 39.0876 27.0812 38.9127 28.0098 38.914C28.9384 38.9153 29.8551 39.0928 30.6945 39.4338H30.691ZM27.9965 34.5397C27.3012 34.329 26.6251 34.0741 25.9739 33.7771C25.2092 33.4362 24.4788 33.0412 23.7903 32.5963L23.2785 32.2565L22.7834 31.8979L22.3059 31.5204L21.8425 31.1301L21.3984 30.7223L21.0827 30.406C21.2222 30.4488 21.3626 30.4905 21.5039 30.5313C22.1986 30.7291 22.8986 30.899 23.6004 31.0455C23.9521 31.121 24.3039 31.1874 24.6557 31.2524C24.8315 31.2841 25.0153 31.3158 25.1991 31.3445C25.3829 31.3732 25.5685 31.3996 25.754 31.42C27.2415 31.6016 28.7515 31.6016 30.2389 31.42C30.4245 31.3996 30.6092 31.3709 30.7938 31.3445C30.9785 31.3181 31.1658 31.2833 31.3373 31.2524C31.6891 31.1867 32.0408 31.1195 32.3926 31.0447C33.0961 30.8993 33.7949 30.7281 34.4891 30.5313C34.6321 30.49 34.7755 30.4475 34.9191 30.4037L34.5964 30.7261L34.1567 31.1338C33.5526 31.6653 32.9007 32.155 32.207 32.5986C31.5177 33.0421 30.7874 33.4368 30.0235 33.7787C29.3715 34.0743 28.6952 34.3286 28 34.5397H27.9965ZM53.5421 26.9948C53.3258 26.353 53.0145 25.706 52.4947 25.1276L50.1863 22.544L50.5275 25.7868C50.553 26.0238 50.5724 26.2609 50.5873 26.498C50.065 27.0225 49.4689 27.4894 48.8127 27.888C48.1692 28.2715 47.4749 28.5878 46.7443 28.8303C45.9664 29.0824 45.1638 29.2746 44.3462 29.4048C45.7207 30.1772 48.9033 30.3962 50.4299 30.0572C50.3736 30.4286 50.3059 30.7986 50.2241 31.167C48.4187 32.2414 46.2897 32.921 43.881 33.2003C43.3094 31.7998 42.4634 29.7008 40.1876 28.4203C39.8358 28.2202 39.3794 28.3161 39.2079 28.6468C39.1497 28.7593 39.1363 28.885 39.1696 29.0047C39.203 29.1244 39.2814 29.2313 39.3926 29.3089C41.2543 30.6136 41.7916 32.5367 41.6544 34.3985C41.5427 34.7474 41.4073 35.0848 41.2666 35.4133C41.1259 35.7417 40.9491 36.0641 40.7671 36.3729C40.5829 36.6771 40.3791 36.9723 40.1568 37.257C40.0996 37.3265 40.0469 37.3982 39.9879 37.4662C39.929 37.5341 39.871 37.6021 39.8121 37.67C39.785 37.703 39.7556 37.7345 39.7241 37.7644L39.6362 37.8535C39.5764 37.9116 39.5236 37.9751 39.4603 38.0294C39.397 38.0838 39.3302 38.1374 39.2677 38.1925C39.2361 38.2189 39.207 38.2484 39.1719 38.2733L39.0681 38.3488C38.9986 38.3979 38.9318 38.4485 38.8641 38.4998L38.6451 38.6319L38.5369 38.6999C38.5 38.7203 38.4604 38.7391 38.4217 38.7588L38.1931 38.8766C38.1148 38.9128 38.033 38.9438 37.9539 38.9785L37.8343 39.0306C37.7947 39.0487 37.7464 39.0585 37.7103 39.0736L37.4614 39.1597C37.3788 39.1876 37.2908 39.2042 37.2055 39.2292C37.0337 39.2734 36.8594 39.3099 36.6832 39.3386C36.6395 39.3479 36.5951 39.3544 36.5504 39.3583L36.4167 39.3749L36.283 39.3915C36.2386 39.3985 36.1936 39.4026 36.1485 39.4036L35.8776 39.4194L35.8099 39.424H35.7422H35.6059C35.2393 39.4216 34.8738 39.3887 34.5146 39.3258C34.4266 39.3047 34.3387 39.2865 34.2446 39.2669L34.1083 39.239L33.9755 39.1997L33.7117 39.1242L33.6774 39.1144L33.6369 39.1016C33.6369 39.1016 33.5763 39.0797 33.556 39.0744C33.0284 38.9438 29.0421 37.4367 29.028 36.2302V36.2227C30.6433 35.6945 32.1499 34.9482 33.491 34.012C34.252 33.483 34.956 32.8962 35.5945 32.2588L36.0597 31.7733L36.4994 31.2705L36.9083 30.7503L37.2891 30.215L37.45 29.9885L37.4236 29.7786L37.3436 29.1292L37.2293 28.4852L37.0868 27.848C37.0314 27.6373 36.976 27.4267 36.9109 27.2175L36.7104 26.5954C36.6357 26.39 36.5627 26.1847 36.4853 25.9808L36.2312 25.3768L35.9533 24.7811L35.6464 24.1975L35.3166 23.6244L34.9595 23.0649C34.8356 22.8815 34.7063 22.7002 34.5779 22.5198C34.0588 21.8031 33.46 21.1313 32.7901 20.5137C33.2521 21.2418 33.6632 21.9929 34.0212 22.7629L34.2763 23.3375L34.5093 23.9173L34.723 24.501L34.9147 25.0884L35.0906 25.678L35.2392 26.2715L35.3729 26.8657L35.4793 27.4614L35.5672 28.0586L35.6296 28.6558L35.6666 29.2523L35.6754 29.5785L35.5725 29.6993L35.4476 29.688C35.0809 29.6555 34.7168 29.6344 34.3528 29.6125C33.6264 29.5777 32.9035 29.5626 32.1815 29.5717C31.8201 29.5717 31.4604 29.5853 31.099 29.5981L30.5714 29.6193L30.056 29.6359C29.3701 29.657 28.6859 29.6653 28.0018 29.6668C27.3176 29.6683 26.6334 29.6555 25.9466 29.6336C25.7751 29.6298 25.6036 29.6208 25.4313 29.617L24.9036 29.5958C24.5431 29.5823 24.1825 29.5724 23.822 29.5687C23.1 29.5604 22.3771 29.5755 21.6499 29.6094C21.2867 29.6291 20.9226 29.651 20.5559 29.6849L20.4328 29.6963L20.3352 29.5777L20.344 29.2523L20.3809 28.6558L20.4433 28.0594L20.5313 27.4622L20.6368 26.8657L20.7678 26.2715L20.9156 25.678L21.0915 25.0884L21.2823 24.501L21.496 23.9173L21.729 23.3375L21.984 22.7622C22.3417 21.992 22.7528 21.2409 23.2152 20.513C22.5442 21.1301 21.9446 21.8017 21.4248 22.5183C21.2964 22.6987 21.168 22.8799 21.0431 23.0634L20.6861 23.6229L20.3554 24.1959L20.0485 24.7796L19.7706 25.3753L19.5165 25.9793L19.2799 26.5946L19.0794 27.2175C19.0187 27.4267 18.9642 27.6373 18.9079 27.848L18.7655 28.4852L18.6511 29.1285L18.5711 29.7786L18.5447 29.9892L18.7057 30.2157L19.0873 30.751L19.4962 31.2712L19.9359 31.7741L20.4011 32.2596L20.8901 32.7284L21.4072 33.1762L21.9454 33.6043L22.5047 34.0127C23.8545 34.9542 25.3717 35.7034 26.9984 36.2317V36.2393C27.0124 37.4314 22.9866 38.9355 22.4405 39.0714C22.4193 39.0766 22.3587 39.0985 22.3587 39.0985L22.3191 39.1114L22.2848 39.1212L22.021 39.1967L21.8882 39.236L21.7519 39.2639C21.6639 39.2828 21.5716 39.3016 21.4828 39.3228C21.1235 39.3855 20.7581 39.4187 20.3915 39.4217C20.0303 39.4256 19.6696 39.3977 19.3151 39.3386C19.1389 39.3093 18.9648 39.2715 18.7936 39.2254C18.7057 39.2012 18.6177 39.1839 18.5377 39.1567L18.2897 39.0706C18.2059 39.0443 18.1245 39.0127 18.0461 38.9762C17.9661 38.9415 17.8852 38.9098 17.806 38.8743L17.5765 38.7565C17.5387 38.7361 17.4991 38.718 17.4622 38.6976L17.354 38.6304L17.1342 38.4983C17.0665 38.4477 16.9996 38.3979 16.9302 38.3473L16.8264 38.2718C16.7912 38.2469 16.7622 38.2174 16.7305 38.1902C16.6681 38.1351 16.6021 38.0815 16.5379 38.0272C16.4737 37.9728 16.421 37.9094 16.3621 37.8512L16.2741 37.7629C16.2426 37.733 16.2133 37.7015 16.1862 37.6685L16.0103 37.4639C15.9514 37.396 15.8986 37.325 15.8415 37.2548C15.6183 36.9703 15.4143 36.6751 15.2303 36.3706C15.0482 36.0626 14.8829 35.7417 14.7308 35.411C14.5786 35.0803 14.4573 34.7511 14.3465 34.4068C14.2067 32.545 14.7396 30.6212 16.596 29.3142C16.6913 29.2485 16.7639 29.1616 16.8059 29.063C16.8479 28.9644 16.8577 28.8578 16.8343 28.7548C16.8121 28.6658 16.7652 28.5828 16.6975 28.5129C16.6298 28.443 16.5433 28.3882 16.4455 28.3532C16.3477 28.3183 16.2415 28.3042 16.136 28.3122C16.0305 28.3202 15.9288 28.35 15.8397 28.3991C13.5462 29.6789 12.6959 31.7892 12.1225 33.195C9.71382 32.9157 7.58392 32.2339 5.77588 31.1625C5.69498 30.7941 5.62638 30.4241 5.5701 30.0526C7.09761 30.3916 10.2793 30.1727 11.6546 29.4003C10.8366 29.272 10.0335 29.0815 9.25478 28.831C8.52414 28.5887 7.82979 28.2723 7.18643 27.8887C6.52979 27.4904 5.93338 27.0235 5.41093 26.4988C5.42559 26.2617 5.44523 26.0246 5.46985 25.7875L5.81106 22.5447L3.50264 25.1284C2.98643 25.7067 2.67161 26.3538 2.45528 26.9956L2.28467 26.9201C2.75348 21.7103 4.93137 16.7211 8.56621 12.5301C9.01646 12.0122 8.86344 11.4391 8.2804 11.0307L7.60591 10.5248C6.45479 9.47602 5.69979 8.153 5.43995 6.72931C5.13832 5.0743 5.63606 3.34229 6.67902 1.91152C6.67902 1.91152 6.76696 1.90473 6.82412 1.90246C7.04133 1.8934 7.25854 1.89114 7.47663 1.89416C7.72287 1.89768 7.96851 1.90825 8.21357 1.92587C8.32965 1.93417 8.44573 1.94323 8.56533 1.95456L8.79045 1.97796C9.77456 2.10253 10.7423 2.3086 11.6802 2.59331C12.5735 2.85839 13.429 3.20945 14.2304 3.63976C14.5708 3.81673 14.8943 4.01669 15.1977 4.23774C15.3472 4.34898 15.4912 4.46475 15.6295 4.58505C15.1421 4.92489 14.6817 5.2924 14.2515 5.68511C14.1293 5.79837 14.007 5.91162 13.8998 6.03393L13.7291 6.21363L13.5638 6.39861C13.3521 6.64785 13.1751 6.91746 13.0362 7.20195C13.5119 6.74894 14.0668 6.40465 14.6402 6.08301C15.2136 5.76137 15.8151 5.47899 16.4245 5.21096C16.7282 5.07506 17.0348 4.94393 17.3443 4.8176C17.653 4.69075 17.9599 4.56466 18.2747 4.44008C18.5896 4.31551 18.9 4.19848 19.2148 4.08296C19.3731 4.0218 19.5244 3.97424 19.6783 3.92063L19.9069 3.84135C19.9834 3.81568 20.0617 3.79379 20.1391 3.76585C21.3683 3.38376 22.6494 3.1384 23.9513 3.03575C24.6046 2.98214 25.2651 2.9527 25.9369 2.94439L26.4417 2.93986H26.9509L27.4636 2.94363L27.9965 2.94968L28.5285 2.94288L29.0412 2.94666H29.5495H30.0552C30.7258 2.95471 31.3877 2.98491 32.0408 3.03726C33.343 3.13963 34.6245 3.385 35.8539 3.76736C35.9313 3.79228 36.0095 3.81417 36.0852 3.84286L36.3147 3.92214C36.4686 3.97575 36.6198 4.02331 36.7781 4.08447C37.093 4.19999 37.4043 4.3223 37.7182 4.4416C38.3408 4.68547 38.9608 4.93764 39.5649 5.2087C40.1691 5.47975 40.7794 5.76439 41.3528 6.08225C41.9261 6.40012 42.4801 6.75045 42.9559 7.20195C42.8168 6.9178 42.6397 6.64847 42.4283 6.39936L42.2691 6.21061L42.0994 6.03091C41.9877 5.90784 41.8646 5.7961 41.7423 5.68209C41.312 5.28966 40.8514 4.92264 40.3634 4.58354C40.5024 4.46198 40.6475 4.34495 40.7979 4.23396C41.1013 4.01291 41.4248 3.81295 41.7652 3.63599C42.5665 3.20549 43.422 2.85442 44.3155 2.58953C45.2533 2.30491 46.2211 2.09884 47.2052 1.97419L47.4303 1.95078C47.5464 1.93946 47.6624 1.9304 47.782 1.92209C48.0265 1.90473 48.2727 1.89416 48.5181 1.89038C48.7362 1.89038 48.9578 1.89038 49.1715 1.89869C49.2269 1.89869 49.3157 1.90775 49.3157 1.90775C50.3595 3.34229 50.8564 5.07053 50.5557 6.72553C50.295 8.14901 49.5401 9.47184 48.3897 10.521L47.7152 11.0269C47.1322 11.4353 46.9783 12.0084 47.4285 12.5264C51.0658 16.7167 53.2462 21.7059 53.7171 26.9163L53.5421 26.9948Z" fill="white"/>
<path d="M48.4882 8.81555C48.9713 8.37991 49.729 6.18129 49.3831 4.34961C49.0973 4.90077 48.7695 5.43522 48.402 5.9495C48.0746 6.4038 47.6952 6.82897 47.2695 7.21869C46.8792 7.57185 46.4407 7.8834 45.9636 8.14661C45.498 8.39872 45.002 8.60705 44.4844 8.76799C45.3925 9.4845 47.8458 9.41202 48.4882 8.81555Z" fill="white"/>
<path d="M49.4735 9.7704C49.3591 9.78852 49.2404 9.80966 49.1217 9.83231C47.4024 11.7689 44.4088 13.0789 42.3685 12.9611C38.8226 11.5892 33.6841 10.724 27.9642 10.724C22.2444 10.724 17.1059 11.5892 13.5679 12.9619C11.5267 13.0789 8.53402 11.7697 6.81384 9.83306C6.69248 9.81041 6.57464 9.78927 6.46207 9.77115C3.68833 9.33097 1.92243 11.5432 2.5178 14.7128C3.09032 17.757 5.63364 20.5762 8.29217 21.184C9.57878 23.5246 12.9206 25.1894 16.842 25.1894C18.2977 25.1949 19.7405 24.9553 21.0888 24.4842C22.9233 25.3789 25.3321 25.9188 27.9704 25.9188C30.6087 25.9188 33.0184 25.3759 34.8529 24.4842C36.2009 24.9553 37.6434 25.1949 39.0988 25.1894C43.0202 25.1894 46.3629 23.5231 47.6495 21.184C50.308 20.58 52.8505 17.757 53.423 14.7128C54.0131 11.5424 52.2472 9.33022 49.4735 9.7704Z" fill="white"/>
<path d="M38.8752 21.3618C39.549 21.1222 39.869 20.4593 39.5899 19.8811C39.3108 19.3028 38.5383 19.0282 37.8645 19.2677C37.1907 19.5072 36.8708 20.1702 37.1499 20.7484C37.429 21.3267 38.2014 21.6013 38.8752 21.3618Z" fill="#100F12"/>
<path d="M38.6288 17.116C39.2998 16.8782 39.6191 16.2186 39.342 15.6428C39.0648 15.0669 38.2962 14.7929 37.6251 15.0308C36.9541 15.2686 36.6348 15.9282 36.912 16.504C37.1892 17.0799 37.9578 17.3539 38.6288 17.116Z" fill="#100F12"/>
<path d="M41.3769 19.2148C42.0506 18.9753 42.3705 18.3123 42.0914 17.7341C41.8124 17.1558 41.04 16.8812 40.3663 17.1208C39.6926 17.3603 39.3727 18.0232 39.6518 18.6015C39.9308 19.1797 40.7032 19.4543 41.3769 19.2148Z" fill="#100F12"/>
<path d="M36.3749 19.2148C37.0486 18.9753 37.3685 18.3123 37.0895 17.7341C36.8104 17.1558 36.0381 16.8812 35.3644 17.1208C34.6907 17.3603 34.3708 18.0232 34.6498 18.6015C34.9289 19.1797 35.7012 19.4543 36.3749 19.2148Z" fill="#100F12"/>
<path d="M20.9784 17.0359H18.8733V15.2292C18.873 15.1388 18.831 15.0522 18.7565 14.9884C18.6819 14.9245 18.5809 14.8887 18.4756 14.8887H16.6282C16.523 14.8887 16.4221 14.9245 16.3477 14.9884C16.2733 15.0523 16.2315 15.1389 16.2315 15.2292V17.0359H14.1272C14.0221 17.0361 13.9213 17.0721 13.8469 17.1359C13.7726 17.1997 13.7307 17.2862 13.7305 17.3765V18.962C13.7307 19.0523 13.7726 19.1387 13.8469 19.2026C13.9213 19.2664 14.0221 19.3023 14.1272 19.3025H16.2332V21.1093C16.2332 21.1997 16.275 21.2863 16.3494 21.3503C16.4238 21.4143 16.5247 21.4504 16.63 21.4506H18.4774C18.5828 21.4504 18.6838 21.4143 18.7583 21.3504C18.8328 21.2864 18.8748 21.1997 18.875 21.1093V19.3018H20.9802C21.0854 19.3018 21.1863 19.2659 21.2607 19.202C21.3351 19.1382 21.3769 19.0516 21.3769 18.9613V17.3757C21.3764 17.2853 21.3342 17.1988 21.2595 17.1351C21.1848 17.0714 21.0837 17.0357 20.9784 17.0359Z" fill="#100F12"/>
</svg>
